#define freqcalc_width 16
#define freqcalc_height 16
static char freqcalc_bits[] = {
  0xFC,0x3F,0x02,0x40,0x21,0x82,0x51,0x82,0x11,0x81,0x39,0x81,
  0x91,0xBE,0x91,0x88,0x55,0x88,0x49,0x88,0x21,0x88,0x21,0x88,
  0x02,0x40,0xFC,0x3F,0x00,0x30,0x00,0x20
};